<?xml version="1.0" encoding="UTF-8"?><svg xmlns="http://www.w3.org/2000/svg" viewBox="0 0 744.09 1052.36"><defs><style>.c{fill:#fff;}.d{fill:#00abe9;}</style></defs><g id="a"><rect class="c" x="267.52" y="377.65" width="210.25" height="299.01"/></g><g id="b"><path class="d" d="M470.81,369.75c8.65,2.12,12.75,7.22,13.37,16.14v281.39c-.69,8.02-5.23,12.86-12.76,14.93h-198.86c-7.37-2.24-12.07-6.95-12.75-14.93v-280.78c.43-6.23,2.14-10.91,7.47-14.44l6.49-2.31h197.04ZM276.02,382.08c-2.41.83-4.23,2.99-4.1,5.64v276.53c0,3.03,2.76,5.79,5.75,5.8h188.01c2.61-.08,5.02-1.31,5.87-3.87l.5-278.46c.15-2.37-1.29-4.17-3.22-5.31l-192.81-.33Z"/><path class="c" d="M276.02,382.08l192.81.33c1.93,1.14,3.36,2.94,3.22,5.31l-.5,278.46c-.85,2.56-3.26,3.79-5.87,3.86h-188.01c-2.98,0-5.75-2.76-5.76-5.79v-276.53c-.12-2.65,1.7-4.81,4.11-5.64ZM465.96,388.06h-187.94v275.85h187.94v-275.85Z"/><path class="d" d="M465.96,388.06v275.85h-187.94v-275.85h187.94ZM289.96,396.12c-2.41.83-4.23,2.99-4.1,5.64v248.46c0,3.02,2.75,5.79,5.75,5.8h160.13c2.61-.08,5.02-1.31,5.87-3.87l.5-250.39c.15-2.37-1.29-4.17-3.22-5.31l-164.92-.33Z"/><path class="c" d="M289.96,396.12l164.92.33c1.93,1.14,3.36,2.94,3.22,5.31l-.5,250.39c-.85,2.56-3.26,3.79-5.87,3.86h-160.13c-3,0-5.75-2.77-5.76-5.79v-248.46c-.12-2.65,1.7-4.81,4.11-5.64ZM331.36,402.09h-39.41v39.67c23.55,5.16,44.53-15.93,39.41-39.67ZM405.93,402.09h-67.9c4.89,27.23-19.04,51.3-46.08,46.38v155.01c27.04-4.9,50.8,19.25,46.08,46.38h67.9c-4.74-27.34,18.98-51.05,46.08-46.38v-155.01c-27.07,4.75-50.97-19.03-46.08-46.38ZM452.01,402.09h-39.41c-5.19,23.72,15.87,44.91,39.41,39.67v-39.67ZM331.36,649.87c5.26-23.66-15.9-44.97-39.41-39.67v39.67h39.41ZM452.01,610.2c-23.54-5.32-44.69,15.92-39.41,39.67h39.41v-39.67Z"/><path class="d" d="M405.93,402.09c-4.9,27.35,19,51.13,46.08,46.38v155.01c-27.1-4.66-50.82,19.04-46.08,46.38h-67.9c4.72-27.14-19.04-51.28-46.08-46.38v-155.01c27.04,4.92,50.96-19.15,46.08-46.38h67.9ZM398.05,410.03h-52.14v9.46c0,15.4-21.39,36.92-36.68,36.92h-9.4v139.15h10c14.67,0,36.07,21.58,36.07,36.31v10.07h52.14v-10.07c0-14.73,21.39-36.31,36.07-36.31h10v-139.15h-10c-15.02,0-36.07-21.86-36.07-36.92v-9.46Z"/><path class="d" d="M452.01,610.2v39.67h-39.41c-5.29-23.74,15.87-44.99,39.41-39.67ZM442.92,624.86c-5.43.38-10.33.62-15.76,0,.51,5.38.3,10.48,0,15.87l6.96-1.26,8.5.65c-.84-5.12-1.4-10.2.3-15.25Z"/><path class="d" d="M331.36,649.87h-39.41v-39.67c23.5-5.3,44.67,16.01,39.41,39.67ZM316.81,640.72c-.16-5.42-.82-10.5.32-15.87l-7.89.66-7.58-.97.66,7.94-.97,7.63,8.5-.65,6.96,1.26Z"/><path class="d" d="M452.01,402.09v39.67c-23.54,5.24-44.6-15.95-39.41-39.67h39.41ZM442.91,411.25c-5.28,1.26-10.45,1.21-15.76.29l.49,7.94-.79,7.63,9.03-.55,6.43.86-.66-7.94,1.26-8.24Z"/><path class="d" d="M331.36,402.09c5.12,23.74-15.86,44.83-39.41,39.67v-39.67h39.41ZM302.57,427.12c3.87-.46,9.25,0,13.34,0,.18,0,.84.85,1.51.61.37-.87-.6-1.81-.6-2.13v-12.82c0-.18.84-.85.6-1.52-5.35.94-11.01.94-16.36,0,.94,5.39.93,11.09,0,16.47.69.24,1.26-.58,1.51-.61Z"/><path class="d" d="M398.05,410.03v9.46c0,15.07,21.05,36.92,36.07,36.92h10v139.15h-10c-14.68,0-36.07,21.58-36.07,36.31v10.07h-52.14v-10.07c0-14.74-21.41-36.31-36.07-36.31h-10v-139.15h9.4c15.29,0,36.68-21.52,36.68-36.92v-9.46h52.14ZM391.3,416.22l-38.65-.02c-1.97,25.41-21.85,44.69-46.78,47.28l.12,124.98c.52,1.59,2.98.8,4.39,1.07,17,3.28,31.6,13.38,38.26,29.84,2.2,5.45,2.82,10.93,4.35,16.49l38.44-.29c.76-3.24,1.01-6.52,1.82-9.76,4.08-16.27,17.87-30.35,33.91-34.83,1.82-.51,10.77-1.84,10.93-2.55v-124.91c-.2-.85-7.81-1.62-9.59-2.06-20.69-5.21-35.33-24.1-37.2-45.25Z"/><path class="c" d="M442.92,624.86c-1.69,5.05-1.14,10.13-.3,15.25l-8.5-.65-6.96,1.26c.3-5.39.5-10.49,0-15.87,5.44.63,10.33.39,15.76,0Z"/><path class="c" d="M316.81,640.72l-6.96-1.26-8.5.65.97-7.63-.66-7.94,7.58.97,7.89-.66c-1.14,5.37-.48,10.44-.32,15.87Z"/><path class="c" d="M442.91,411.25l-1.26,8.24.66,7.94-6.43-.86-9.03.55.79-7.63-.49-7.94c5.31.91,10.48.97,15.76-.29Z"/><path class="c" d="M302.57,427.12c-.25.03-.82.85-1.51.61.93-5.38.93-11.08,0-16.47,5.36.94,11.02.94,16.36,0,.24.67-.6,1.34-.6,1.52v12.82c0,.32.97,1.26.6,2.13-.67.24-1.33-.61-1.51-.61-4.09,0-9.46-.46-13.34,0Z"/><path class="c" d="M391.3,416.22c1.88,21.15,16.51,40.04,37.2,45.25,1.78.45,9.4,1.21,9.59,2.06v124.91c-.16.71-9.11,2.04-10.93,2.55-16.04,4.47-29.83,18.56-33.91,34.83-.81,3.24-1.06,6.52-1.82,9.76l-38.44.29c-1.54-5.56-2.15-11.04-4.35-16.49-6.65-16.46-21.26-26.56-38.26-29.84-1.41-.27-3.87.51-4.39-1.07l-.12-124.98c24.93-2.59,44.82-21.87,46.78-47.28l38.65.02ZM394.42,491.8c-8.21-6.7-16.25-13.6-22.14-22.57-1.18-.3-4.92,6.04-6.05,7.33-4.98,5.73-10.98,10.31-16.68,15.24l10.63,7.93,12.1,14.06c5.73-8.69,13.1-16.79,22.14-21.98ZM359.85,525.38c-8.94-5.22-16.35-13.4-22.12-21.98-4.52,5.94-9.23,11.84-14.85,16.79-1.29,1.13-7.58,4.9-7.28,6.09,8.91,5.93,15.76,14.02,22.42,22.28,5.06-8.78,12.9-16.5,21.46-21.92l.38-1.26ZM406.3,504.04c-4.04,4.91-7.78,10.02-12.48,14.33-1.4,1.28-9.3,6.85-9.08,7.87,4.88,4.06,9.95,7.84,14.23,12.56,1.27,1.4,6.84,9.42,7.86,9.16,4.16-5.84,8.88-11.42,14.25-16.18,1.19-1.05,7.54-5.07,7.28-6.09-5.53-4.08-10.91-8.54-15.47-13.73-1.17-1.33-5.54-8.15-6.6-7.92ZM371.24,518.16c-12.24,1.38-6.11,20.82,4.6,14.44,7.49-4.46,2.8-15.28-4.6-14.44ZM372.58,538.19l-1.25.38c-5.46,8.59-13.04,16.47-21.77,21.6,8.21,6.7,16.25,13.6,22.14,22.57,1.01.26,5.01-6.14,6.05-7.33,4.94-5.65,10.76-10.41,16.68-14.95-8.57-5.65-16.78-13.24-21.83-22.27Z"/><path class="d" d="M359.85,525.38l-.38,1.26c-8.55,5.41-16.39,13.14-21.46,21.92-6.66-8.26-13.51-16.35-22.42-22.28-.3-1.19,6-4.96,7.28-6.09,5.62-4.95,10.33-10.85,14.85-16.79,5.77,8.58,13.18,16.76,22.12,21.98Z"/><path class="d" d="M394.42,491.8c-9.04,5.19-16.4,13.29-22.14,21.98l-12.1-14.06-10.63-7.93c5.7-4.93,11.7-9.51,16.68-15.24,1.12-1.29,4.86-7.63,6.05-7.33,5.89,8.97,13.93,15.87,22.14,22.57Z"/><path class="d" d="M372.58,538.19c5.06,9.03,13.26,16.62,21.83,22.27-5.92,4.54-11.74,9.3-16.68,14.95-1.04,1.19-5.04,7.59-6.05,7.33-5.89-8.97-13.93-15.87-22.14-22.57,8.74-5.13,16.31-13.01,21.77-21.6l1.25-.38Z"/><path class="d" d="M406.3,504.04c1.06-.23,5.43,6.59,6.6,7.92,4.56,5.18,9.94,9.64,15.47,13.73.26,1.02-6.1,5.04-7.28,6.09-5.37,4.76-10.09,10.34-14.25,16.18-1.02.26-6.59-7.76-7.86-9.16-4.28-4.72-9.36-8.5-14.23-12.56-.22-1.02,7.68-6.58,9.08-7.87,4.69-4.31,8.44-9.42,12.48-14.33Z"/><path class="d" d="M371.24,518.16c7.4-.84,12.08,9.98,4.6,14.44-10.71,6.38-16.84-13.06-4.6-14.44Z"/></g></svg>